<?xml version="1.0" encoding="utf-8"?>
<!-- Generator: Adobe Illustrator 24.0.1, SVG Export Plug-In . SVG Version: 6.00 Build 0)  -->
<svg version="1.1" id="Layer_1" xmlns="http://www.w3.org/2000/svg" xmlns:xlink="http://www.w3.org/1999/xlink" x="0px" y="0px"
	 viewBox="0 0 1162 272" style="enable-background:new 0 0 1162 272;" xml:space="preserve">
<style type="text/css">
	.st0{fill:#D01325;}
	.st1{fill:#FFFFFF;}
	.st2{fill:none;stroke:#000000;stroke-width:2;stroke-miterlimit:10;}
</style>
<g>
	<path class="st0" d="M1.2,110.1c0.4-22.7,1.4-45.2,6-67.5c0.1-0.7,0.2-1.3,0.3-2c3.5-13.5,5-14.7,19.1-14.8
		c22.5-0.2,45-0.7,67.5-0.2c10,0.2,20.4,1.4,29.9,4.4c22.4,7.1,31.8,31.2,21,54.4c-4.2,9-11.2,16.8-17,25.1
		c-0.9,1.4-2.2,2.5-3.3,3.7c-9.5,10.5-9.5,11.9,0.8,21.9c11.3,11.1,22.5,22.2,29.7,36.7c8,16.1,10.6,32.9,5.9,50.3
		c-5.5,20.8-20.4,31.7-40.6,35.9c-7.1,1.5-14.5,2-21.8,2.1c-26.6,0.4-53.3,0.5-79.9,0.6c-8.2,0.1-10.1-0.8-11.7-9
		c-2.1-10.6-3.7-21.3-4.4-32.1C1.6,204,1.6,188.2,1,172.3 M76,224.6c9.6,0,18.9-1.3,27.5-5.9c11.4-6,16.7-17,14-29.6
		c-3.7-17-13.6-30-26.8-40.9c-3.7-3.1-7.8-2.7-11.7-0.5c-9.8,5.3-19.5,10.8-29.2,16.2c-4.6,2.6-7,6.6-6.7,11.9
		c0.5,8.1,0.7,16.3,1.9,24.3c2.6,17.2,11.1,24.2,28.4,24.4C74.3,224.6,75.2,224.6,76,224.6z M41,114.6c0,14.2,4.6,17,17.3,10.6
		c1.2-0.6,2.4-1.1,3.5-1.9c8.5-6.2,17.2-12.1,25.3-18.7c7.3-5.9,12.9-13.5,15.8-22.6c3.6-11.2-1.3-20.7-12.8-22.4
		c-7.4-1.1-15.2-0.5-22.7,0.6C57,61.7,49.3,68.2,46.3,78.3"/>
	<g>
		<path class="st1" d="M331.1,163.3c0.2-32.6,2.6-58,2.3-67.5c0-0.3,0.5-6.7,2.1-14.8c1.5-7.7,6.7-11.8,14.3-12.3
			c7.5-0.4,15-0.5,22.5-0.3c5.9,0.2,7.2,2.4,5.5,8.1c-0.7,2.2-1.5,4.4-2,6.7c-0.9,4.6,2.6,7.9,7.1,6.4c2.8-0.9,5.3-2.8,8-4
			c6.1-2.6,12.1-5.6,18.4-7.5c10.8-3.2,21.3-1.7,30.2,5.7c9,7.5,17.9,6.5,27.1,0.9c11-6.7,22.8-10.1,35.8-7.8
			c18.2,3.2,27.9,15.6,33.9,31.8c5.4,14.7,7.4,30.1,7.6,45.6c0.2,24.5-0.1,49-0.8,73.5c-0.2,7.2-2,14.5-3.9,21.5
			c-1.7,6.4-4.2,7.4-10.6,7.3c-7.7-0.2-15.3,0-23,0c-8.4,0-9.3-1.6-7.9-9.9c3-17.5,6.5-35,8.2-52.7c1.8-19.1,2.3-38.3-2.6-57.2
			c-1.5-5.7-3.9-11.4-6.9-16.5c-5.3-8.9-13.9-12-24-11c-5.8,0.6-9.9,4-10.9,9.5c-1.8,10.1-3.7,20.4-3.9,30.6
			c-0.6,28.7-0.3,57.3-0.6,86c-0.1,5.3-1,10.6-1.8,15.9c-0.6,4-3,5.9-7.3,5.9c-9.8-0.1-19.7,0.1-29.5,0.3c-3.8,0.1-5.6-1.1-5-5.2
			c1.9-13,3.8-26,5.6-39.1c3.4-25.8,6.3-51.7,1.6-77.6c-1-5.3-2.7-10.7-5.3-15.5c-6.6-12.1-20.9-13.9-30.7-4
			c-7.2,7.2-9.7,16.6-11.2,26.2c-4,24.9-3.2,49.9-0.3,74.7c1.2,10.9,3.7,21.6,5.8,32.4c1.3,6.7,0.1,8.4-7,8.4
			c-8.2,0.1-16.3,0.1-24.5,0.2c-3.5,0-5.7-0.2-7.2-1.4c-2.3-1.9-2.6-5-2.8-6.3c-0.8-7.6-2.5-15.1-2.9-22.7
			C333.5,210.5,330.8,196.3,331.1,163.3z"/>
		<path class="st2" d="M331.1,163.3c0.2-32.6,2.6-58,2.3-67.5c0-0.3,0.5-6.7,2.1-14.8c1.5-7.7,6.7-11.8,14.3-12.3
			c7.5-0.4,15-0.5,22.5-0.3c5.9,0.2,7.2,2.4,5.5,8.1c-0.7,2.2-1.5,4.4-2,6.7c-0.9,4.6,2.6,7.9,7.1,6.4c2.8-0.9,5.3-2.8,8-4
			c6.1-2.6,12.1-5.6,18.4-7.5c10.8-3.2,21.3-1.7,30.2,5.7c9,7.5,17.9,6.5,27.1,0.9c11-6.7,22.8-10.1,35.8-7.8
			c18.2,3.2,27.9,15.6,33.9,31.8c5.4,14.7,7.4,30.1,7.6,45.6c0.2,24.5-0.1,49-0.8,73.5c-0.2,7.2-2,14.5-3.9,21.5
			c-1.7,6.4-4.2,7.4-10.6,7.3c-7.7-0.2-15.3,0-23,0c-8.4,0-9.3-1.6-7.9-9.9c3-17.5,6.5-35,8.2-52.7c1.8-19.1,2.3-38.3-2.6-57.2
			c-1.5-5.7-3.9-11.4-6.9-16.5c-5.3-8.9-13.9-12-24-11c-5.8,0.6-9.9,4-10.9,9.5c-1.8,10.1-3.7,20.4-3.9,30.6
			c-0.6,28.7-0.3,57.3-0.6,86c-0.1,5.3-1,10.6-1.8,15.9c-0.6,4-3,5.9-7.3,5.9c-9.8-0.1-19.7,0.1-29.5,0.3c-3.8,0.1-5.6-1.1-5-5.2
			c1.9-13,3.8-26,5.6-39.1c3.4-25.8,6.3-51.7,1.6-77.6c-1-5.3-2.7-10.7-5.3-15.5c-6.6-12.1-20.9-13.9-30.7-4
			c-7.2,7.2-9.7,16.6-11.2,26.2c-4,24.9-3.2,49.9-0.3,74.7c1.2,10.9,3.7,21.6,5.8,32.4c1.3,6.7,0.1,8.4-7,8.4
			c-8.2,0.1-16.3,0.1-24.5,0.2c-3.5,0-5.7-0.2-7.2-1.4c-2.3-1.9-2.6-5-2.8-6.3c-0.8-7.6-2.5-15.1-2.9-22.7
			C333.5,210.5,330.8,196.3,331.1,163.3z"/>
	</g>
	<g>
		<path class="st1" d="M1153.5,154.3c-0.9,25.9-1.5,50.6-2.6,75.2c-0.3,5.9-1.8,11.8-2.9,17.7c-0.6,3.2-2.4,4.7-5.9,4.7
			c-22,0-44,0.7-66,0.3c-17.8-0.4-31.1-9.7-41-24.1c-8.2-12.1-12.2-25.8-14.2-40.1c-3.6-26-1.1-51.2,10.3-75.1
			c7.1-14.9,17-27.5,30.7-36.7c3.4-2.3,7.2-4.2,11-5.9c8-3.4,15.9-3.9,23.8,1.2c6.3,4.1,9.2,2.7,10.9-4.7c2.5-11.4,0-22.5-2.5-33.5
			c-1.2-5.3-2.6-10.6-3.6-16c-0.7-3.8,1.3-5.6,5-5.7c10.7-0.2,21.3-0.4,32-0.7c3.7-0.1,5,2.6,5.5,5.3c1.9,10.1,4.4,20.3,5,30.5
			C1150.9,82.8,1152.1,119.1,1153.5,154.3z M1115.9,149.7c-1.4-14-2.2-28-4.5-41.7c-2.4-14.3-11.7-17.4-25-11.4
			c-8.5,3.8-14.6,10.5-18.9,18.6c-11.1,20.9-12.9,43-7.9,65.9c1.8,8.2,5,15.9,10.9,22.1c12.7,13.4,32.9,9.8,39.9-7.2
			c1.3-3.2,2.6-6.6,2.9-10C1114.4,173.9,1115.1,161.8,1115.9,149.7z"/>
		<path class="st2" d="M1153.5,154.3c-0.9,25.9-1.5,50.6-2.6,75.2c-0.3,5.9-1.8,11.8-2.9,17.7c-0.6,3.2-2.4,4.7-5.9,4.7
			c-22,0-44,0.7-66,0.3c-17.8-0.4-31.1-9.7-41-24.1c-8.2-12.1-12.2-25.8-14.2-40.1c-3.6-26-1.1-51.2,10.3-75.1
			c7.1-14.9,17-27.5,30.7-36.7c3.4-2.3,7.2-4.2,11-5.9c8-3.4,15.9-3.9,23.8,1.2c6.3,4.1,9.2,2.7,10.9-4.7c2.5-11.4,0-22.5-2.5-33.5
			c-1.2-5.3-2.6-10.6-3.6-16c-0.7-3.8,1.3-5.6,5-5.7c10.7-0.2,21.3-0.4,32-0.7c3.7-0.1,5,2.6,5.5,5.3c1.9,10.1,4.4,20.3,5,30.5
			C1150.9,82.8,1152.1,119.1,1153.5,154.3z M1115.9,149.7c-1.4-14-2.2-28-4.5-41.7c-2.4-14.3-11.7-17.4-25-11.4
			c-8.5,3.8-14.6,10.5-18.9,18.6c-11.1,20.9-12.9,43-7.9,65.9c1.8,8.2,5,15.9,10.9,22.1c12.7,13.4,32.9,9.8,39.9-7.2
			c1.3-3.2,2.6-6.6,2.9-10C1114.4,173.9,1115.1,161.8,1115.9,149.7z"/>
	</g>
	<g>
		<path class="st1" d="M1000.8,176c-0.8,16.6-1.5,33.9-2.7,51.2c-0.5,6.4-2.3,12.7-3.9,19c-1.3,5-4.8,7.2-10.1,7.1
			c-9.2-0.1-18.3,0.1-27.5,0.1c-6.7,0-8.2-1.8-6.3-8.2c9.7-34.3,13.8-69.2,12.1-104.8c-0.3-6.9-1.5-14-3.5-20.6
			c-4.6-15.3-18-16.9-29.1-10.8c-8.1,4.4-12.4,12-15.2,20.4c-5.6,16.9-6.6,34.4-4.8,51.9c2.3,22.2,5.3,44.3,8.1,66.4
			c0.5,4.2-1.1,5.8-5.2,5.8c-9.7,0-19.3,0.1-29,0.3c-4.8,0.1-7.2-2.5-8-6.7c-1.2-7-2.8-14.2-2.9-21.2c-0.3-37.3-0.5-74.7,0.1-112
			c0.2-11.2,2.1-22.6,4.4-33.6c2.8-13.5,7.7-16.7,21.3-16.7c5.2,0,10.3-0.2,15.5,0c7.1,0.3,8.8,2.9,6.6,9.5c-0.4,1.1-1,2.3-0.9,3.3
			c0.3,2.3,0.5,5.1,1.8,6.7c0.8,1,4,0.5,5.8-0.1c8.2-3.1,16.1-7.4,24.5-9.6c13.5-3.5,25,0.8,33.5,12.1c9.1,12,12.4,26.2,13.5,40.7
			C1000.2,142.6,1000.2,159,1000.8,176z"/>
		<path class="st2" d="M1000.8,176c-0.8,16.6-1.5,33.9-2.7,51.2c-0.5,6.4-2.3,12.7-3.9,19c-1.3,5-4.8,7.2-10.1,7.1
			c-9.2-0.1-18.3,0.1-27.5,0.1c-6.7,0-8.2-1.8-6.3-8.2c9.7-34.3,13.8-69.2,12.1-104.8c-0.3-6.9-1.5-14-3.5-20.6
			c-4.6-15.3-18-16.9-29.1-10.8c-8.1,4.4-12.4,12-15.2,20.4c-5.6,16.9-6.6,34.4-4.8,51.9c2.3,22.2,5.3,44.3,8.1,66.4
			c0.5,4.2-1.1,5.8-5.2,5.8c-9.7,0-19.3,0.1-29,0.3c-4.8,0.1-7.2-2.5-8-6.7c-1.2-7-2.8-14.2-2.9-21.2c-0.3-37.3-0.5-74.7,0.1-112
			c0.2-11.2,2.1-22.6,4.4-33.6c2.8-13.5,7.7-16.7,21.3-16.7c5.2,0,10.3-0.2,15.5,0c7.1,0.3,8.8,2.9,6.6,9.5c-0.4,1.1-1,2.3-0.9,3.3
			c0.3,2.3,0.5,5.1,1.8,6.7c0.8,1,4,0.5,5.8-0.1c8.2-3.1,16.1-7.4,24.5-9.6c13.5-3.5,25,0.8,33.5,12.1c9.1,12,12.4,26.2,13.5,40.7
			C1000.2,142.6,1000.2,159,1000.8,176z"/>
	</g>
	<g>
		<path class="st1" d="M307.2,189.6c1,2.3,2.3,4.6,2.8,7c6.6,32.7-16,62.2-49.2,66c-43.5,5-70.2-19.3-78.5-56.3
			c-6.9-30.7-4.9-61,8.7-89.7c9.4-19.8,24.1-34.4,45.8-40.2c19.6-5.2,38.3-2.7,55.2,9.3c23.1,16.3,26.7,59.2-2.1,77.6
			c-12.4,7.9-26.1,12.3-39.7,17.1c-6.6,2.3-13.2,4.7-19.3,7.9c-13.3,7.1-13.8,19-1.7,28c21,15.6,63.3,11.8,73.9-21.3
			c0.6-1.9,1.5-3.6,2.3-5.4C306,189.7,306.6,189.6,307.2,189.6z M251.7,106.8c-3.1,0.7-6.2,1-9.2,2.1c-14.3,4.9-26.1,22.1-26.3,38.1
			c-0.1,6.6,2.5,8.9,9,7.3c7.4-1.8,15-3.5,22-6.3c8.1-3.2,16.1-7.1,23.6-11.6c5.5-3.4,6.2-7.8,4-14
			C271.6,113.2,262.5,107.2,251.7,106.8z"/>
		<path class="st2" d="M307.2,189.6c1,2.3,2.3,4.6,2.8,7c6.6,32.7-16,62.2-49.2,66c-43.5,5-70.2-19.3-78.5-56.3
			c-6.9-30.7-4.9-61,8.7-89.7c9.4-19.8,24.1-34.4,45.8-40.2c19.6-5.2,38.3-2.7,55.2,9.3c23.1,16.3,26.7,59.2-2.1,77.6
			c-12.4,7.9-26.1,12.3-39.7,17.1c-6.6,2.3-13.2,4.7-19.3,7.9c-13.3,7.1-13.8,19-1.7,28c21,15.6,63.3,11.8,73.9-21.3
			c0.6-1.9,1.5-3.6,2.3-5.4C306,189.7,306.6,189.6,307.2,189.6z M251.7,106.8c-3.1,0.7-6.2,1-9.2,2.1c-14.3,4.9-26.1,22.1-26.3,38.1
			c-0.1,6.6,2.5,8.9,9,7.3c7.4-1.8,15-3.5,22-6.3c8.1-3.2,16.1-7.1,23.6-11.6c5.5-3.4,6.2-7.8,4-14
			C271.6,113.2,262.5,107.2,251.7,106.8z"/>
	</g>
	<g>
		<path class="st1" d="M801.3,255.2c-11.4,0.6-25.2-1.1-39.3-4.3c-38.5-8.8-52.5-48.5-29.1-80.6c12.8-17.5,30.5-27.3,51.2-32.4
			c2.9-0.7,5.9-1.1,8.8-1.9c8-2.1,11-7.4,9-15.5c-1.5-5.8-5-10.1-10.1-13.1c-8.2-5-17-5.5-26-3.5c-9.3,2-14.2,8.6-17.3,17.1
			c-2.6,7.2-5.7,8-12.2,3.7c-10.1-6.8-13.6-20.6-8.1-32c3.9-8.1,10.4-13.5,18.4-16.9c22-9.2,44-8.9,64.9,2.6
			c15.5,8.5,25.2,22.2,26.7,39.9c2.4,28.5,3.4,57.2,5.1,85.7c0.7,12.5,1.5,24.9,2.6,37.4c0.7,8.1-0.2,9.8-8.4,10.8
			C826.8,253.3,818.9,255.8,801.3,255.2z M805.5,192C805.5,192,805.5,192,805.5,192c0.1-2.7,0.1-5.3,0.1-8c0-2.7,0-5.3-0.1-8
			c-0.4-7.9-5.2-12.2-13.1-11.5c-2.6,0.2-5.3,0.8-7.8,1.6c-14.5,4.3-25.4,17.8-24.9,30.8c0.6,15.8,16.2,27.2,33.6,24.3
			c8.2-1.3,12-5.4,12.2-13.7C805.6,202.3,805.5,197.2,805.5,192z"/>
		<path class="st2" d="M801.3,255.2c-11.4,0.6-25.2-1.1-39.3-4.3c-38.5-8.8-52.5-48.5-29.1-80.6c12.8-17.5,30.5-27.3,51.2-32.4
			c2.9-0.7,5.9-1.1,8.8-1.9c8-2.1,11-7.4,9-15.5c-1.5-5.8-5-10.1-10.1-13.1c-8.2-5-17-5.5-26-3.5c-9.3,2-14.2,8.6-17.3,17.1
			c-2.6,7.2-5.7,8-12.2,3.7c-10.1-6.8-13.6-20.6-8.1-32c3.9-8.1,10.4-13.5,18.4-16.9c22-9.2,44-8.9,64.9,2.6
			c15.5,8.5,25.2,22.2,26.7,39.9c2.4,28.5,3.4,57.2,5.1,85.7c0.7,12.5,1.5,24.9,2.6,37.4c0.7,8.1-0.2,9.8-8.4,10.8
			C826.8,253.3,818.9,255.8,801.3,255.2z M805.5,192C805.5,192,805.5,192,805.5,192c0.1-2.7,0.1-5.3,0.1-8c0-2.7,0-5.3-0.1-8
			c-0.4-7.9-5.2-12.2-13.1-11.5c-2.6,0.2-5.3,0.8-7.8,1.6c-14.5,4.3-25.4,17.8-24.9,30.8c0.6,15.8,16.2,27.2,33.6,24.3
			c8.2-1.3,12-5.4,12.2-13.7C805.6,202.3,805.5,197.2,805.5,192z"/>
	</g>
	<path class="st0" d="M585.8,256.3c-9.5,0-12.3-2.1-12.4-11.4c-0.2-31-1.4-62,0.5-92.9c2.3-38.7,6.8-77.2,14.4-115.3
		c3-15.1,2.9-15.2,18-15.7c9.3-0.3,18.7-0.3,28-0.4c9.6-0.1,11.1,2.2,7.7,11.5c-5.3,14.9-11,29.6-15.6,44.7
		c-9.5,31.1-14.5,62.9-14.1,95.4c0.1,7.4,1.1,15,2.9,22.2c5.2,21.3,22.8,31,43.2,22.9c9.2-3.7,17.6-10,25.6-16
		c10.5-7.8,11.3-8.1,14.9,4.4c3.9,13.6,7.1,27.3,10.3,41.1c1.7,7.3,0.5,8.4-7.1,8.5c-9.8,0-19.7,0.1-29.5,0.1c-9.8,0-19.7,0-29.5,0"
		/>
</g>
</svg>
