<?xml version="1.0" encoding="utf-8"?>
<!-- Generator: Adobe Illustrator 24.0.1, SVG Export Plug-In . SVG Version: 6.00 Build 0)  -->
<svg version="1.1" id="Layer_1" xmlns="http://www.w3.org/2000/svg" xmlns:xlink="http://www.w3.org/1999/xlink" x="0px" y="0px"
	 viewBox="0 0 323 198" style="enable-background:new 0 0 323 198;" xml:space="preserve">
<style type="text/css">
	.st0{fill-rule:evenodd;clip-rule:evenodd;fill:#3897F0;}
</style>
<image style="overflow:visible;enable-background:new    ;" width="320" height="195" id="Layer_2_copy" xlink:href="D9E6A545.png"  transform="matrix(1 0 0 1 1.0069 0)">
</image>
<path class="st0" d="M315.4,0c-2.6,0.5-5.1,1.1-7.6,1.7c-6.4,1.8-12.6,4-17.3,5.7c-16.8,4.9-48.6,29.2-52.8,34.9
	c-0.4,0.4-0.7,0.8-1,1.2l0.1,0c0,0-21.4,24-27.2,59.8c0,0-45.4-9.3-71.4-7.1c0,0-67,3-91.9,14.8c0,0-15.1,3.1-17-17.2
	C30.7,86,15.9,58,11.5,45.8c0,0,1.9-6.9,82.2,0L225,49.6l4.7-7.3C134.2,41.2,89.9,37.7,18,35.1l-3.3,0.2
	C-5.2,39.7,0.9,48.7,0.9,48.7c18.5,21.1,21.4,54.7,21.4,54.7c3.7,13.8,8.9,13.8,8.9,13.8l0.1,0.4c2.9,1.4,6.1,2.3,9.3,2.6
	c0,0,67-12,91.3-10.4c0,0,47.5,0,68.4,10.4c0,0,31.8,25.9-6.9,51.2c0,0,0.8,5.2-44.1-4.4c-34.5-1-55.4-0.5-106.5,20.9l-0.5,0.4
	c17.7,11.2,31.2,5,31.2,5c50.6-22.3,111.8-5.6,111.8-5.6c54.1,8.4,40.6-57.1,40.6-57.1C215,35.2,311.2,15,311.2,15
	C335,8,315.4,0,315.4,0z"/>
</svg>
